<svg width="64" height="64" viewBox="0 0 64 64" fill="none" xmlns="http://www.w3.org/2000/svg">
<path d="M7.38462 32.211L13.011 36.5715C13.222 36.7121 17.6528 40.1583 21.9429 40.1583C22.4352 40.1583 22.9978 40.088 23.4198 40.0176C24.1231 39.877 24.967 40.088 25.8813 40.5803C20.6066 44.0967 11.1121 50.2858 10.1275 51.411C9.49451 52.1847 8.86154 53.0989 8.72088 54.1539C8.50989 55.3495 8.86154 56.4748 9.63517 57.3187L10.2681 58.1627C11.1824 59.4989 13.433 60.4836 15.8945 59.2176C17.1604 58.5847 27.0769 49.5121 31.5077 45.5737C31.578 45.644 44.589 58.3737 45.5736 59.0066C46.3473 59.4989 47.3319 59.9209 48.3165 59.9209C49.2308 59.9209 50.4967 59.5693 51.5517 58.1627L52.2549 57.2484C53.3802 55.9825 53.4506 54.7165 53.3099 53.8726C53.1692 53.0286 52.7473 52.255 52.1846 51.6923C51.2 50.4967 37.2747 40.2989 37.2747 40.2989C38.822 38.9627 41.1429 37.2748 43.1824 37.2044C47.1912 37.1341 52.1846 33.8286 52.4659 33.688L63.2967 25.3891C64 24.8264 64.1407 23.8418 63.578 23.1385C63.0154 22.4352 62.0308 22.2945 61.3275 22.8572L50.567 31.1561C49.3011 32 45.5736 34.0396 43.1121 34.1099C41.7055 34.1099 40.2989 34.6022 38.9626 35.3055C40.0176 34.1803 40.7912 32.9847 41.2132 31.5781C41.9165 29.1869 44.8703 26.0924 45.9956 25.1077L56.6857 16.8792C57.389 16.3165 57.5297 15.3319 56.967 14.6286C56.4044 13.9253 55.4198 13.7847 54.7165 14.3473L43.8154 22.7869C43.6044 22.9275 39.1736 26.9363 38.0484 30.8044C37.3451 33.1956 34.1099 35.3759 32.1407 36.5715L5.13407 16.1055C4.57143 15.6836 3.86813 15.6836 3.3055 16.0352C0.843956 17.5825 0.21099 19.622 0.14066 20.9583C-0.0703291 26.233 6.61099 31.5781 7.38462 32.211ZM13.3626 56.8264C13.2923 56.8264 11.7451 54.8572 11.7451 54.6462C11.6044 53.6616 13.1516 52.677 14.0659 52.1143C14.0659 52.1143 23.2088 46.066 28.4835 42.6198C28.7648 42.8308 28.9758 43.1121 29.2571 43.3231C24.6154 47.5429 14.4176 58.444 13.3626 56.8264ZM4.21978 19.3407L50.1451 54.5055L48.3165 56.8264C48.3165 56.8264 33.4769 43.1121 33.1956 42.8308C30.8044 40.2989 27.4989 36.8528 23.8418 36.8528C23.4901 36.8528 23.0681 36.9231 22.7165 36.9934C18.567 37.5561 9.28352 29.7495 9.28352 29.7495C7.73626 28.4836 3.16484 24.1934 3.3055 21.0989C3.37582 20.677 3.51648 20.044 4.21978 19.3407Z" fill="white"/>
<path d="M41.2835 6.11867C39.8769 4.92307 38.0484 4.2901 36.1495 4.2901C33.9692 4.2901 31.8593 5.13406 30.3121 6.68131C30.1714 6.82197 30.1011 6.8923 29.9604 7.03296C28.0615 4.92307 25.2484 3.86812 22.4352 4.43076C19.9736 4.85274 17.9341 6.32966 16.5275 8.50988C14.5582 11.6747 14.4176 14.7692 16.1055 17.6527C16.9494 19.1297 18.0747 20.6066 19.411 22.0835C21.9429 24.756 24.967 27.3582 28.8352 30.1011C29.2571 30.3824 29.6791 30.4527 29.9604 30.4527C30.5934 30.4527 30.9451 30.1714 31.156 30.0308C34.6022 27.5692 37.4857 25.178 39.8769 22.7165C41.2132 21.3099 42.8308 19.622 43.956 17.4417C44.4484 16.4571 45.011 15.1912 45.011 13.7143C44.8703 10.6901 43.6044 8.0879 41.2835 6.11867ZM41.0725 16.0352C40.0879 17.8637 38.7516 19.3407 37.556 20.5363C35.4462 22.6461 32.9846 24.756 29.9604 27.0066C26.5846 24.6154 23.9121 22.2945 21.7319 19.9736C20.5363 18.6374 19.5516 17.4418 18.8484 16.1758C17.7934 14.2769 17.8637 12.4483 19.2703 10.1978C20.1846 8.72087 21.3802 7.87691 22.9978 7.52527C23.2791 7.45494 23.6308 7.45494 23.9121 7.45494C25.811 7.45494 27.4286 8.50988 28.3429 10.1978C28.4132 10.3385 28.4835 10.4088 28.5538 10.6198C28.8352 11.1121 29.3978 11.4637 29.9604 11.4637C30.5231 11.4637 31.0857 11.1121 31.367 10.5494C31.7187 9.84615 32.0703 9.35384 32.4923 8.86153C33.4066 7.94725 34.7429 7.38461 36.0791 7.38461C37.2747 7.38461 38.3297 7.80659 39.244 8.50988C40.9319 9.91648 41.7055 11.6044 41.7758 13.7846C41.7758 14.4879 41.5648 15.1209 41.0725 16.0352Z" fill="white"/>
<path d="M58.022 18.6374L46.6989 27.3583C45.9956 27.9209 45.8549 28.9055 46.4176 29.6088C46.6989 30.0308 47.1912 30.2418 47.6835 30.2418C48.0352 30.2418 48.3868 30.1011 48.6681 29.8901L59.9912 21.0989C60.6945 20.5363 60.8352 19.5517 60.2725 18.8484C59.7099 18.2154 58.7253 18.0747 58.022 18.6374Z" fill="white"/>
</svg>
