<svg width="64" height="64" viewBox="0 0 64 64" fill="none" xmlns="http://www.w3.org/2000/svg">
<path d="M63.543 29.6851C63.236 29.3667 62.8064 29.1841 62.3644 29.1841H27.5855L29.3036 11.8701C29.3472 11.4318 29.2025 10.9933 28.9069 10.6669C28.6112 10.3406 28.1891 10.1533 27.7488 10.1533H4.647C4.20662 10.1533 3.7845 10.3406 3.48887 10.6668C3.19325 10.9932 3.04862 11.4318 3.09212 11.8701L6.332 44.5212H2.62075C1.17562 44.5212 0 45.6968 0 47.1419C0 48.5871 1.17562 49.7627 2.62075 49.7627H4.73175C6.24788 53.0648 9.54412 55.2174 13.2485 55.2174H50.674C51.5752 55.2174 52.3085 54.4842 52.3085 53.5829V48.5122C55.5472 46.9976 58.3302 44.6538 60.3843 41.7041C62.6065 38.5126 63.8564 34.7683 63.9987 30.8759C64.015 30.4363 63.8488 30.0023 63.543 29.6851ZM5.7755 19.9238H18.25C18.7679 19.9238 19.1875 19.5042 19.1875 18.9863C19.1875 18.4684 18.7679 18.0488 18.25 18.0488H5.5895L4.99213 12.0284H27.4037L26.8064 18.0488H22.625C22.1071 18.0488 21.6875 18.4684 21.6875 18.9863C21.6875 19.5042 22.1071 19.9238 22.625 19.9238H26.6203L25.7014 29.1842H25.0729C24.6307 29.1842 24.2011 29.3668 23.8941 29.6852C23.5884 30.0024 23.4221 30.4364 23.4382 30.8758C23.4605 31.4832 23.5135 32.0863 23.5895 32.6849C23.2208 32.5376 22.8274 32.4583 22.4236 32.4583C21.4621 32.4583 20.567 32.8999 19.9578 33.6723C19.5928 33.5369 19.2116 33.4658 18.8342 33.4658C17.6951 33.4658 16.6791 34.0649 16.1165 35.0683C16.054 35.1797 15.9981 35.2942 15.9489 35.4117C15.8586 35.4043 15.7684 35.4007 15.6779 35.4007C14.3751 35.4007 13.2287 36.1763 12.7575 37.3772C12.6564 37.6351 12.5889 37.9002 12.5551 38.1712C11.335 38.4063 10.3799 39.2837 10.0861 40.5007C9.98925 40.9016 9.9735 41.3224 10.036 41.7393C9.06 42.2203 8.40862 43.1241 8.2975 44.2298C8.28775 44.3272 8.28312 44.4243 8.28238 44.5213H8.21638L5.7755 19.9238ZM2.62075 47.8876C2.2095 47.8876 1.875 47.5529 1.875 47.1418C1.875 46.7307 2.2095 46.3961 2.62075 46.3961H27.625C28.1429 46.3961 28.5625 45.9764 28.5625 45.4586C28.5625 44.9407 28.1429 44.5211 27.625 44.5211H10.1582C10.1587 44.4863 10.1594 44.4516 10.1628 44.4169C10.2226 43.8217 10.6775 43.3814 11.35 43.2678C11.6406 43.2186 11.8914 43.0357 12.0266 42.7737C12.162 42.5117 12.1661 42.2013 12.038 41.9358C11.8791 41.6063 11.8329 41.2531 11.9085 40.9407C12.0489 40.3592 12.5638 39.9833 13.2204 39.9833C13.2832 39.9833 13.3477 39.9867 13.4119 39.9937C13.7064 40.0251 13.9975 39.9158 14.1987 39.6991C14.3997 39.4823 14.4869 39.1833 14.4335 38.8924C14.3793 38.5968 14.4026 38.3172 14.5028 38.0618C14.6903 37.5843 15.1514 37.2757 15.6776 37.2757C15.8756 37.2757 16.0776 37.3166 16.2782 37.3972C16.5526 37.5076 16.8633 37.4818 17.1159 37.3277C17.3685 37.1738 17.5336 36.9094 17.5613 36.6149C17.583 36.3837 17.6471 36.1719 17.7516 35.9854C17.9814 35.5758 18.3759 35.3408 18.834 35.3408C19.1391 35.3408 19.462 35.4587 19.7432 35.6729C19.9779 35.8517 20.2825 35.9096 20.5661 35.8294C20.8498 35.7493 21.0791 35.5406 21.1856 35.2658C21.2437 35.1156 21.3195 34.9782 21.4111 34.8576C21.6634 34.5243 22.0324 34.3333 22.4234 34.3333C22.8457 34.3333 23.254 34.5533 23.5431 34.9368C23.7203 35.1718 23.9975 35.3098 24.2916 35.3098C24.5859 35.3098 24.8631 35.1717 25.0403 34.9367C25.3294 34.5533 25.7374 34.3333 26.1597 34.3333C26.5506 34.3333 26.9195 34.5244 27.172 34.8576C27.2633 34.9782 27.3393 35.1157 27.3978 35.2663C27.5044 35.5411 27.7338 35.7497 28.0174 35.8297C28.3011 35.9097 28.6057 35.8516 28.8401 35.6729C29.1211 35.4587 29.4439 35.3408 29.7491 35.3408C30.2071 35.3408 30.6016 35.5758 30.8312 35.9852C30.936 36.1721 31.0001 36.3841 31.0219 36.6152C31.0496 36.9097 31.2148 37.1739 31.4674 37.3278C31.72 37.4818 32.0305 37.5076 32.3049 37.3971C32.5052 37.3166 32.7073 37.2757 32.9054 37.2757C33.4316 37.2757 33.8926 37.5843 34.08 38.0618C34.1803 38.3173 34.2035 38.5968 34.1495 38.8926C34.0961 39.1834 34.1834 39.4826 34.3845 39.6992C34.5856 39.9161 34.8774 40.0258 35.1714 39.9936C35.2354 39.9867 35.2996 39.9833 35.3626 39.9833C36.0191 39.9833 36.534 40.3592 36.6744 40.9407C36.7499 41.2529 36.7038 41.6064 36.5448 41.9359C36.4168 42.2016 36.4209 42.5118 36.5563 42.7737C36.6915 43.0357 36.9422 43.2187 37.2329 43.2678C37.9053 43.3814 38.3601 43.8218 38.4199 44.4168C38.4234 44.4514 38.424 44.4863 38.4245 44.5211H32C31.4821 44.5211 31.0625 44.9407 31.0625 45.4586C31.0625 45.9764 31.4821 46.3961 32 46.3961H45.9627C46.374 46.3961 46.7085 46.7307 46.7085 47.1418C46.7085 47.5529 46.374 47.8876 45.9627 47.8876H2.62075ZM35.335 53.3423H13.2485C10.5892 53.3423 8.19275 51.9558 6.85187 49.7626H41.7315C40.3906 51.9558 37.9942 53.3423 35.335 53.3423ZM58.8457 40.6323C56.8727 43.4657 54.1599 45.6828 51.0001 47.0444C50.6562 47.1926 50.4336 47.5311 50.4336 47.9054V53.3423H40.9668C42.1912 52.4229 43.1906 51.2024 43.8517 49.7626H45.9629C47.408 49.7626 48.5836 48.5869 48.5836 47.1418C48.5836 45.6967 47.408 44.5211 45.9629 44.5211H40.301C40.3004 44.4239 40.2956 44.3267 40.2859 44.2292C40.1747 43.1237 39.5235 42.2199 38.5476 41.7389C38.61 41.3223 38.5942 40.9014 38.4975 40.5006C38.4078 40.1291 38.2559 39.7897 38.0541 39.4901H59.579C59.3489 39.8786 59.1051 40.2598 58.8457 40.6323ZM60.5461 37.6152H35.9079C35.8833 37.5352 35.8566 37.4557 35.8257 37.3771C35.3547 36.1766 34.2085 35.4007 32.9058 35.4007C32.8153 35.4007 32.7249 35.4043 32.6346 35.4117C32.6199 35.3766 32.6034 35.3422 32.5874 35.3076H61.3947C61.1641 36.0948 60.8805 36.8653 60.5461 37.6152ZM61.8382 33.4326H28.416C27.8197 32.8097 27.0165 32.4583 26.16 32.4583C25.9223 32.4583 25.6884 32.4867 25.4606 32.5388C25.3958 32.0489 25.3477 31.5558 25.3229 31.0592H62.1144C62.0741 31.8592 61.9801 32.6514 61.8382 33.4326Z" fill="white"/>
<path d="M23.2398 38.334H21.837C21.3191 38.334 20.8995 38.7536 20.8995 39.2715C20.8995 39.7894 21.3191 40.209 21.837 40.209H23.2398C23.7576 40.209 24.1773 39.7894 24.1773 39.2715C24.1773 38.7536 23.7576 38.334 23.2398 38.334Z" fill="white"/>
<path d="M29.9725 40.2977H28.5697C28.0519 40.2977 27.6322 40.7174 27.6322 41.2352C27.6322 41.7531 28.0519 42.1727 28.5697 42.1727H29.9725C30.4904 42.1727 30.91 41.7531 30.91 41.2352C30.91 40.7174 30.4904 40.2977 29.9725 40.2977Z" fill="white"/>
<path d="M17.2082 40.9991H15.8056C15.2877 40.9991 14.8681 41.4188 14.8681 41.9366C14.8681 42.4545 15.2877 42.8741 15.8056 42.8741H17.2082C17.7261 42.8741 18.1457 42.4545 18.1457 41.9366C18.1457 41.4188 17.7261 40.9991 17.2082 40.9991Z" fill="white"/>
<path d="M36.4815 27.0681C36.9994 27.0681 37.419 26.6485 37.419 26.1306V24.4129C37.419 23.7723 37.9403 23.251 38.5809 23.251H47.4875C49.162 23.251 50.5244 21.8888 50.5244 20.2141C50.5244 18.5395 49.1621 17.1773 47.4875 17.1773H39.8534C39.2126 17.1773 38.6914 16.656 38.6914 16.0153C38.6914 15.3746 39.2126 14.8534 39.8534 14.8534H46.875C47.3929 14.8534 47.8125 14.4338 47.8125 13.9159C47.8125 13.398 47.3929 12.9784 46.875 12.9784H39.8533C38.1788 12.9784 36.8163 14.3406 36.8163 16.0153C36.8163 17.6899 38.1786 19.0523 39.8533 19.0523H47.4874C48.128 19.0523 48.6493 19.5735 48.6493 20.2141C48.6493 20.8548 48.128 21.376 47.4874 21.376H38.5808C36.9063 21.376 35.5439 22.7383 35.5439 24.4129V26.1306C35.544 26.6484 35.9636 27.0681 36.4815 27.0681Z" fill="white"/>
<path d="M51.2599 14.8401H57.5336C59.2036 14.8401 60.5624 13.4813 60.5624 11.8113C60.5624 10.1413 59.2036 8.78271 57.5336 8.78271H53.3511C52.8332 8.78271 52.4136 9.20234 52.4136 9.72021C52.4136 10.2381 52.8332 10.6577 53.3511 10.6577H57.5336C58.1699 10.6577 58.6874 11.1753 58.6874 11.8113C58.6874 12.4476 58.1697 12.9651 57.5336 12.9651H51.2599C50.742 12.9651 50.3224 13.3847 50.3224 13.9026C50.3224 14.4205 50.7421 14.8401 51.2599 14.8401Z" fill="white"/>
</svg>
